<?xml version="1.0" standalone="no"?>
<!DOCTYPE svg PUBLIC "-//W3C//DTD SVG 20010904//EN"
 "http://www.w3.org/TR/2001/REC-SVG-20010904/DTD/svg10.dtd">
<svg version="1.0" xmlns="http://www.w3.org/2000/svg"
 width="167.000000pt" height="167.000000pt" viewBox="0 0 167.000000 167.000000"
 preserveAspectRatio="xMidYMid meet">
<metadata>
Created by potrace 1.14, written by Peter Selinger 2001-2017
</metadata>
<g transform="translate(0.000000,167.000000) scale(0.100000,-0.100000)"
fill="#000000" stroke="none">
<path d="M789 1665 c-2 -1 -21 -6 -43 -9 -63 -10 -186 -55 -256 -93 -271 -147
-434 -435 -425 -748 6 -204 63 -359 184 -505 164 -195 373 -298 622 -305 244
-7 452 76 620 248 77 78 102 125 105 200 6 145 -97 262 -239 272 -83 5 -138
-17 -210 -85 -92 -85 -153 -114 -247 -115 -61 0 -86 5 -131 26 -107 50 -171
144 -177 261 -2 36 1 83 8 105 43 138 186 234 325 220 77 -8 135 -37 209 -106
78 -72 121 -92 202 -93 109 -1 194 55 242 160 48 106 17 214 -91 323 -113 113
-263 195 -427 231 -57 13 -261 23 -271 13z"/>
<path d="M835 981 c-47 -21 -68 -43 -87 -91 -69 -170 176 -299 283 -149 34 48
34 140 0 186 -46 62 -129 85 -196 54z"/>
</g>
</svg>
